<svg xmlns="http://www.w3.org/2000/svg" viewBox="0 0 32 32" width="64" height="64" style="fill: rgba(0, 33, 115, 0.71);">
    <path d="M 16 3 C 15.538 3 15.063875 3.0279375 14.546875 3.0859375 L 14.767578 5.0722656 C 15.209578 5.0232656 15.613 5 16 5 C 22.065 5 27 9.935 27 16 C 27 22.065 22.065 27 16 27 C 15.614 27 15.213391 26.975734 14.775391 26.927734 L 14.554688 28.914062 C 15.066688 28.971062 15.54 29 16 29 C 23.168 29 29 23.168 29 16 C 29 8.832 23.168 3 16 3 z M 11.707031 3.7382812 C 10.789031 4.0602812 9.9088906 4.4869062 9.0878906 5.0039062 L 10.152344 6.6953125 C 10.846344 6.2583125 11.592141 5.8989531 12.369141 5.6269531 L 11.707031 3.7382812 z M 6.8066406 6.8085938 C 6.1446406 7.4715937 5.536 8.2407969 5 9.0917969 L 6.6933594 10.15625 C 7.1493594 9.43125 7.6637031 8.7796562 8.2207031 8.2226562 L 6.8066406 6.8085938 z M 21.248047 11.341797 L 14.876953 18.621094 L 10.625 15.21875 L 9.375 16.78125 L 15.123047 21.378906 L 22.751953 12.658203 L 21.248047 11.341797 z M 3.7363281 11.714844 C 3.4083281 12.652844 3.1909375 13.606781 3.0859375 14.550781 L 5.0722656 14.771484 C 5.1612656 13.977484 5.347 13.169047 5.625 12.373047 L 3.7363281 11.714844 z M 5.0742188 17.236328 L 3.0878906 17.458984 C 3.1938906 18.404984 3.4122344 19.360875 3.7402344 20.296875 L 5.6289062 19.632812 C 5.3499063 18.839812 5.1632188 18.033328 5.0742188 17.236328 z M 6.6972656 21.851562 L 5.0058594 22.916016 C 5.5418594 23.767016 6.1485 24.534266 6.8125 25.197266 L 8.2246094 23.78125 C 7.6666094 23.22425 7.1532656 22.575563 6.6972656 21.851562 z M 10.160156 25.310547 L 9.0957031 27.001953 C 9.9167031 27.517953 10.797797 27.942672 11.716797 28.263672 L 12.376953 26.376953 C 11.598953 26.104953 10.853156 25.746547 10.160156 25.310547 z"/>
</svg>
