<svg xmlns="http://www.w3.org/2000/svg" version="1" viewBox="0 0 24 24" enable-background="new 0 0 24 24" width="48" height="48" style="fill: rgb(255, 255, 255);">
    <path style="text-indent:0;text-align:start;line-height:normal;text-transform:none;block-progression:tb;-inkscape-font-specification:Bitstream Vera Sans" d="M 9 0 L 9 2 L 15 2 L 15 0 L 9 0 z M 19.40625 1.59375 L 17.96875 3 L 20.46875 5.59375 L 21.90625 4.21875 L 19.40625 1.59375 z M 12 3 C 6.4666667 3 2 7.4666667 2 13 C 2 18.533333 6.4666667 23 12 23 C 17.533333 23 22 18.533333 22 13 C 22 7.4666667 17.533333 3 12 3 z M 12 5 C 16.466667 5 20 8.5333333 20 13 C 20 17.466667 16.466667 21 12 21 C 7.5333333 21 4 17.466667 4 13 C 4 8.5333333 7.5333333 5 12 5 z M 11 7 L 11 15 L 13 15 L 13 7 L 11 7 z" color="#000" overflow="visible" enable-background="accumulate" font-family="Bitstream Vera Sans"/>
</svg>