<svg xmlns="http://www.w3.org/2000/svg" viewBox="0 0 24 24" enable-background="new 0 0 24 24" width="48" height="48" style="fill: rgb(241, 196, 15);">
    <path d="M21.4,10.6l-8-8c-0.8-0.8-2-0.8-2.8,0l-8,8c-0.8,0.8-0.8,2,0,2.8l8,8c0.8,0.8,2,0.8,2.8,0l8-8 C22.2,12.6,22.2,11.4,21.4,10.6z M7,13.5c-0.8,0-1.5-0.7-1.5-1.5s0.7-1.5,1.5-1.5s1.5,0.7,1.5,1.5S7.8,13.5,7,13.5z M12,13.5 c-0.8,0-1.5-0.7-1.5-1.5s0.7-1.5,1.5-1.5s1.5,0.7,1.5,1.5S12.8,13.5,12,13.5z M17,13.5c-0.8,0-1.5-0.7-1.5-1.5s0.7-1.5,1.5-1.5 s1.5,0.7,1.5,1.5S17.8,13.5,17,13.5z"/>
</svg>