<svg xmlns="http://www.w3.org/2000/svg" viewBox="0 0 24 24" width="48" height="48">
    <path d="M12,2C6.477,2,2,6.477,2,12c0,5.523,4.477,10,10,10s10-4.477,10-10C22,6.477,17.523,2,12,2z M12,18&#9;c-1.655,0-3.138-0.69-4.223-1.777L6,18v-5h5l-1.814,1.814C9.907,15.541,10.896,16,12,16c1.474,0,2.75-0.81,3.444-2h2.206&#9;C16.823,16.327,14.606,18,12,18z M18,11h-5l1.814-1.814C14.093,8.459,13.104,8,12,8c-1.474,0-2.75,0.81-3.444,2H6.35&#9;C7.176,7.673,9.394,6,12,6c1.655,0,3.138,0.69,4.223,1.777L18,6V11z"/>
</svg>